<!--?xml version="1.0" encoding="utf-8"?-->
<!-- Svg Vector Icons : http://www.onlinewebfonts.com/icon -->

<svg version="1.1" xmlns="http://www.w3.org/2000/svg" xmlns:xlink="http://www.w3.org/1999/xlink" x="0px" y="0px" viewBox="0 0 256 256" enable-background="new 0 0 256 256" xml:space="preserve">
<metadata> Svg Vector Icons : http://www.onlinewebfonts.com/icon </metadata>
<g><g><path fill="#000000" data-title="Layer 0" xs="0" d="M92.5,28.8"/><path fill="white" data-title="Layer 1" xs="1" d="M10,29.3c0.1-0.6,0.2-1.3,0.4-1.9c0.8-3,3.5-5.1,6.6-5.2c0.7,0,1.5,0,2.2,0c11.9,0,23.8,0.1,35.7,0c4.3,0,6.9,2.8,7.7,5.9c9,34.3,18.1,68.6,27.2,103c1.8,6.7,3.5,13.4,5.3,20c1.7,6.2,7.2,10.3,13.6,10.3c28.8,0,57.6,0,86.3,0c4.9,0,9-2.8,10.7-7.4c6.1-16.3,12.1-32.6,18.2-48.9c2.4-6.4,4.8-12.8,7.2-19.3c1.9-5.2-0.9-10.9-6.2-12.4c-0.9-0.2-1.8-0.3-2.7-0.3c-33.2,0-66.4,0-99.6,0c-2.5,0-4.6-0.8-6.1-2.8c-1.8-2.4-2.1-5-0.8-7.6c1.3-2.7,3.5-4,6.4-4.1c0.2,0,0.4,0,0.5,0c33.1,0,66.2,0,99.4,0c9.4,0,16.4,4.3,21.1,12.4c1.7,2.9,2.6,6.1,2.8,9.5c0,0.2,0.1,0.4,0.1,0.6c0,1,0,2,0,2.9c-0.1,1-0.3,1.9-0.4,2.9c-0.4,2.6-1.5,5-2.4,7.5c-8,21.6-16,43.3-24.1,64.8c-3.4,9.1-10.2,14.5-19.8,16.4c-1.4,0.3-2.8,0.3-4.2,0.3c-28.7,0-57.4,0-86.1,0c-12.9,0-24.4-8.7-27.8-21.8c-6.5-24.8-13.1-49.6-19.6-74.4c-3.7-14.1-7.4-28.2-11.1-42.2c-0.2-0.6-0.4-0.8-1-0.8c-10.6,0-21.2,0-31.8,0c-4,0-7-2.6-7.4-6.6c0-0.2-0.1-0.4-0.1-0.6C10,29.4,10,29.3,10,29.3z"/><path fill="white" data-title="Layer 2" xs="2" d="M127.2,208.5c0,10.6-7,20.6-17.2,24.1c-10.9,3.7-22.7-0.5-29-10.4c-8.6-13.4-3.3-31.5,11.1-37.9c11.5-5.2,25-0.7,31.5,10.4C126,198.8,127.2,203.3,127.2,208.5z M88.7,208c0,1.6,0.3,3.1,0.8,4.6c2.9,8.5,13.1,11.9,20.2,6.6c5.9-4.4,7.4-13,3.2-19.1c-3.6-5.3-10.2-7.3-16-4.8C91.5,197.8,89,202.2,88.7,208z"/><path fill="white" data-title="Layer 3" xs="3" d="M222.6,209c0,10.3-7.3,20.5-18,23.7c-11.3,3.4-23.4-1.6-29.2-12.2c-7.1-13.1-1.9-29.7,11.5-36c11.3-5.4,25-1.3,31.8,9.6C221.3,198.4,222.5,203,222.6,209z M184,208c0.2,1.3,0.3,2.6,0.7,3.9c2.2,8.1,11.1,12.1,18.4,8.5c6.4-3.2,9.3-11.1,6.5-17.9c-2.6-6.3-9.2-9.6-15.6-7.9C188.2,196.3,184.2,201.7,184,208z"/></g></g>
</svg>